<?xml version="1.0" standalone="no"?>
<!DOCTYPE svg PUBLIC "-//W3C//DTD SVG 20010904//EN"
 "http://www.w3.org/TR/2001/REC-SVG-20010904/DTD/svg10.dtd">
<svg version="1.0" xmlns="http://www.w3.org/2000/svg"
 width="512.000000pt" height="512.000000pt" viewBox="0 0 512.000000 512.000000"
 preserveAspectRatio="xMidYMid meet">
<metadata>
Created by potrace 1.11, written by Peter Selinger 2001-2013
</metadata>
<g transform="translate(0.000000,512.000000) scale(0.100000,-0.100000)"
fill="#000000" stroke="none">
<path d="M2349 3788 c0 -29 -1 -101 -1 -160 l0 -107 -81 -40 c-82 -40 -176
-118 -230 -191 -138 -186 -152 -443 -35 -641 99 -167 304 -278 545 -294 68 -4
97 -11 130 -31 114 -67 128 -203 29 -279 -103 -78 -263 -55 -330 47 l-17 26
-47 -20 c-26 -11 -69 -30 -97 -42 -27 -13 -94 -40 -147 -62 -54 -21 -98 -44
-98 -50 0 -21 71 -126 121 -180 56 -57 146 -120 214 -146 l40 -16 1 -158 0
-159 209 -3 c120 -1 211 2 214 7 3 5 6 77 5 160 l0 151 84 42 c156 77 280 227
321 389 58 228 -23 463 -209 600 -61 45 -183 101 -246 113 -63 12 -106 17
-162 21 -78 5 -143 35 -180 83 -23 30 -27 45 -27 97 0 51 4 67 27 97 46 61
151 94 236 74 42 -9 103 -50 123 -82 l19 -32 193 80 c105 44 194 82 197 85 2
2 -9 30 -25 61 -42 82 -173 209 -257 250 -36 17 -71 32 -77 32 -14 0 -13 -9
-15 170 l-1 155 -213 3 -212 2 -1 -52z"/>
<path d="M1048 3657 c-64 -67 -140 -147 -168 -177 -29 -30 -133 -138 -230
-240 -98 -102 -195 -203 -215 -225 -50 -53 -372 -390 -408 -426 l-28 -29 80
-82 c43 -46 101 -106 128 -134 114 -120 357 -375 420 -440 37 -39 142 -148
233 -244 91 -95 198 -207 238 -248 39 -42 72 -72 73 -67 6 59 3 585 -4 598 -4
10 -23 33 -40 51 -18 18 -104 108 -192 201 -88 92 -202 211 -252 264 -51 53
-92 99 -90 103 1 3 79 86 172 183 94 98 185 194 204 214 18 20 72 76 119 124
l86 88 0 300 c1 166 -2 303 -5 304 -3 2 -58 -51 -121 -118z"/>
<path d="M3949 3765 c0 -11 -2 -148 -2 -305 l-2 -285 85 -90 c47 -49 103 -108
125 -130 155 -158 370 -388 370 -395 0 -9 -49 -62 -325 -350 -240 -251 -250
-261 -251 -274 -4 -46 -3 -596 1 -596 3 0 34 30 69 67 35 38 143 151 241 253
98 102 192 201 210 220 30 32 441 462 638 666 10 11 -4 31 -80 110 -51 54
-109 114 -128 135 -19 20 -114 118 -210 219 -96 100 -195 203 -219 229 -24 25
-121 127 -216 226 -95 99 -202 212 -239 250 -51 54 -66 65 -67 50z"/>
</g>
</svg>
